<svg width="144" height="32" viewBox="0 0 144 32" fill="none" xmlns="http://www.w3.org/2000/svg">
<g clip-path="url(#clip0_804_14747)">
<path fill-rule="evenodd" clip-rule="evenodd" d="M61.695 15.4656C62.5582 15.1316 63.2987 14.5419 63.8175 13.7755C64.3364 13.009 64.6087 12.1024 64.5981 11.1769C64.5981 7.31712 61.8599 5.40372 58.0991 5.40372H48.2352V26.3918H58.9568C62.2558 26.3918 65.4888 24.0825 65.4888 20.5526C65.4888 16.3563 61.695 15.5052 61.695 15.4656ZM53.3816 9.75836H57.2084C57.4534 9.74317 57.6991 9.77645 57.9312 9.85631C58.1634 9.93616 58.3775 10.061 58.5614 10.2237C58.7452 10.3864 58.8952 10.5838 59.0027 10.8045C59.1102 11.0253 59.1731 11.265 59.1878 11.5101C59.1878 11.5849 59.1878 11.6608 59.1878 11.7377C59.1774 12.2537 58.9635 12.7447 58.5928 13.1037C58.222 13.4627 57.7244 13.6606 57.2084 13.6544H53.3486L53.3816 9.75836ZM57.2414 21.9975H53.4146V17.8738H57.1424C59.0228 17.8738 59.9136 18.6986 59.9136 19.9192C59.9136 21.4433 58.7919 21.9975 57.2414 21.9975Z" fill="#4E5864"/>
<path fill-rule="evenodd" clip-rule="evenodd" d="M76.8373 4.87589C70.7672 4.87589 67.2043 9.72537 67.2043 15.8615C67.2043 21.9975 70.7672 26.847 76.8373 26.847C82.9074 26.847 86.4702 22.0305 86.4702 15.8615C86.4702 9.69238 82.9404 4.87589 76.8373 4.87589ZM76.8373 21.8326C73.8682 21.8326 72.3837 19.1604 72.3837 15.8615C72.3837 12.5625 73.8682 9.92331 76.8373 9.92331C79.8063 9.92331 81.3239 12.5955 81.3239 15.8615C81.3239 19.1934 79.8063 21.8326 76.8373 21.8326Z" fill="#4E5864"/>
<path fill-rule="evenodd" clip-rule="evenodd" d="M97.6538 13.6511L96.928 13.4862C95.1465 13.1233 93.728 12.6615 93.728 11.3749C93.728 9.98929 95.0806 9.42846 96.2682 9.42846C97.0785 9.44053 97.8775 9.61961 98.6155 9.95451C99.3534 10.2894 100.014 10.7729 100.557 11.3749L103.823 8.14186C102.338 6.45939 99.9301 4.8429 96.1692 4.8429C91.7486 4.8429 88.3837 7.31712 88.3837 11.4408C88.3837 15.2017 91.0888 17.0491 94.3878 17.7419L95.1136 17.9068C97.8517 18.4676 98.8744 18.8965 98.8744 20.2161C98.8744 21.4697 97.7527 22.2944 96.0373 22.2944C93.9919 22.2944 92.1445 21.4037 90.7259 19.5893L87.394 22.8883C89.2414 25.0986 91.5837 26.814 96.1032 26.814C100.029 26.814 104.219 24.5707 104.219 19.9852C104.285 15.2017 100.656 14.2779 97.6538 13.6511Z" fill="#4E5864"/>
<path fill-rule="evenodd" clip-rule="evenodd" d="M115.963 21.8326C113.654 21.8326 111.246 19.9192 111.246 15.7295C111.246 12.0017 113.489 9.92331 115.831 9.92331C117.678 9.92331 118.767 10.781 119.625 12.2656L123.848 9.46145C121.736 6.26145 119.229 4.90887 115.765 4.90887C109.431 4.90887 106 9.82434 106 15.7625C106 21.9975 109.794 26.88 115.699 26.88C119.856 26.88 121.835 25.4285 123.98 22.3274L119.724 19.4639C118.866 20.8429 117.942 21.8326 115.963 21.8326Z" fill="#4E5864"/>
<path fill-rule="evenodd" clip-rule="evenodd" d="M137.934 5.40372V13.1233H131.567V5.40372H126.058V26.3852H131.567V18.1047H137.934V26.3852H143.443V5.40372H137.934Z" fill="#4E5864"/>
<path d="M16.4991 0.0593872C13.3542 0.0593872 10.2799 0.991966 7.66498 2.73919C5.05007 4.48642 3.012 6.96982 1.80848 9.87536C0.604973 12.7809 0.29008 15.9781 0.903625 19.0626C1.51717 22.1471 3.0316 24.9803 5.2554 27.2041C7.47919 29.4279 10.3125 30.9424 13.397 31.5559C16.4815 32.1695 19.6786 31.8546 22.5842 30.6511C25.4897 29.4475 27.9731 27.4095 29.7203 24.7946C31.4676 22.1796 32.4002 19.1053 32.4002 15.9604C32.4002 11.7432 30.7249 7.69871 27.7429 4.71669C24.7608 1.73467 20.7163 0.0593872 16.4991 0.0593872ZM16.4991 30.3769C13.6478 30.3769 10.8605 29.5314 8.48975 27.9473C6.11897 26.3632 4.27117 24.1116 3.18002 21.4774C2.08887 18.8431 1.80337 15.9444 2.35964 13.1479C2.9159 10.3514 4.28894 7.7826 6.30512 5.76642C8.3213 3.75023 10.8901 2.3772 13.6866 1.82093C16.4831 1.26467 19.3818 1.55016 22.0161 2.64131C24.6503 3.73246 26.9019 5.58026 28.486 7.95104C30.0701 10.3218 30.9156 13.1091 30.9156 15.9604C30.9147 19.7836 29.3956 23.45 26.6922 26.1535C23.9887 28.8569 20.3223 30.376 16.4991 30.3769Z" fill="#4E5864"/>
<path d="M23.0641 6.03052H21.9754V11.4738H11.0558V6.03052H9.93417C8.29131 7.11433 6.94303 8.58882 6.01015 10.3218C5.07728 12.0549 4.58896 13.9923 4.58896 15.9604C4.58896 17.9286 5.07728 19.866 6.01015 21.599C6.94303 23.332 8.29131 24.8065 9.93417 25.8903H11.0558V20.4536H21.9754V25.8969H23.0641C24.7076 24.8136 26.0566 23.3393 26.99 21.6062C27.9234 19.8731 28.412 17.9355 28.412 15.967C28.412 13.9986 27.9234 12.0609 26.99 10.3278C26.0566 8.59471 24.7076 7.1204 23.0641 6.03712V6.03052ZM9.53829 23.7526C8.51516 22.8435 7.68112 21.7418 7.0838 20.5103C6.48647 19.2789 6.13756 17.9419 6.05699 16.5756C5.97643 15.2093 6.16578 13.8405 6.61423 12.5474C7.06269 11.2543 7.76147 10.0622 8.67066 9.03918C8.94317 8.73478 9.23286 8.4462 9.53829 8.17485V23.7526ZM21.9754 18.9361H11.0558V12.9584H21.9754V18.9361ZM23.4599 23.7196V20.4206V11.4738V8.17485C24.4806 9.09132 25.3106 10.1999 25.9026 11.4373C26.4947 12.6747 26.8371 14.0166 26.9103 15.3863C26.9835 16.7561 26.7861 18.1268 26.3294 19.4203C25.8726 20.7137 25.1655 21.9045 24.2484 22.9245C23.9989 23.2004 23.7358 23.4635 23.4599 23.713V23.7196Z" fill="#4E5864"/>
</g>
<defs>
<clipPath id="clip0_804_14747">
<rect width="142.845" height="32" fill="white" transform="translate(0.598083)"/>
</clipPath>
</defs>
</svg>
