<svg width="109" height="36" viewBox="0 0 109 36" fill="none" xmlns="http://www.w3.org/2000/svg">
<path d="M27.21 12.8375H14.69V16.5525H23.57C23.13 21.7525 18.797 23.9845 14.705 23.9845C13.4087 23.9902 12.1242 23.7376 10.9266 23.2414C9.72896 22.7452 8.64216 22.0155 7.72966 21.0947C6.81716 20.1739 6.09724 19.0806 5.61192 17.8785C5.1266 16.6764 4.88561 15.3897 4.90303 14.0935C4.90303 8.46948 9.25703 4.13948 14.717 4.13948C18.929 4.13948 21.411 6.82448 21.411 6.82448L24.011 4.13048C24.011 4.13048 20.671 0.413483 14.581 0.413483C6.82603 0.413483 0.827026 6.95848 0.827026 14.0275C0.827026 20.9545 6.47003 27.7095 14.777 27.7095C22.084 27.7095 27.433 22.7035 27.433 15.3015C27.433 13.7395 27.206 12.8375 27.206 12.8375H27.21Z" fill="#4E5864"/>
<path d="M37.467 10.1465C32.329 10.1465 28.647 14.1635 28.647 18.8465C28.647 23.6005 32.217 27.6915 37.527 27.6915C42.333 27.6915 46.27 24.0185 46.27 18.9485C46.27 13.1485 41.69 10.1455 37.467 10.1455V10.1465ZM37.517 13.5925C40.043 13.5925 42.437 15.6355 42.437 18.9265C42.437 22.1465 40.053 24.2485 37.505 24.2485C34.705 24.2485 32.505 22.0065 32.505 18.9005C32.505 15.8605 34.685 13.5925 37.525 13.5925H37.517Z" fill="#4E5864"/>
<path d="M56.648 10.1465C51.51 10.1465 47.828 14.1635 47.828 18.8465C47.828 23.6005 51.398 27.6915 56.708 27.6915C61.514 27.6915 65.451 24.0185 65.451 18.9485C65.451 13.1485 60.871 10.1455 56.648 10.1455V10.1465ZM56.698 13.5925C59.224 13.5925 61.618 15.6355 61.618 18.9265C61.618 22.1465 59.234 24.2485 56.686 24.2485C53.886 24.2485 51.686 22.0065 51.686 18.9005C51.686 15.8605 53.866 13.5925 56.706 13.5925H56.698Z" fill="#4E5864"/>
<path d="M75.461 10.1565C70.745 10.1565 67.039 14.2865 67.039 18.9225C67.039 24.2025 71.336 27.7045 75.379 27.7045C77.879 27.7045 79.209 26.7115 80.179 25.5725V27.3025C80.179 30.3295 78.341 32.1425 75.567 32.1425C72.887 32.1425 71.543 30.1495 71.067 29.0195L67.695 30.4195C68.891 32.9495 71.299 35.5865 75.595 35.5865C80.295 35.5865 83.857 32.6335 83.857 26.4395V10.6835H80.193V12.1695C79.063 10.9495 77.515 10.1565 75.463 10.1565H75.461ZM75.801 13.5965C78.113 13.5965 80.487 15.5705 80.487 18.9415C80.487 22.3685 78.117 24.2565 75.75 24.2565C73.236 24.2565 70.897 22.2165 70.897 18.9735C70.897 15.6055 73.327 13.5965 75.801 13.5965Z" fill="#4E5864"/>
<path d="M100.233 10.1355C95.785 10.1355 92.05 13.6755 92.05 18.8955C92.05 24.4215 96.213 27.6985 100.65 27.6985C104.362 27.6985 106.65 25.6685 108 23.8485L104.967 21.8305C104.18 23.0505 102.864 24.2455 100.669 24.2455C98.203 24.2455 97.069 22.8955 96.366 21.5855L108.129 16.7055L107.529 15.2755C106.393 12.4755 103.741 10.1355 100.233 10.1355ZM100.386 13.5095C101.989 13.5095 103.142 14.3615 103.632 15.3835L95.776 18.6665C95.436 16.1245 97.846 13.5095 100.376 13.5095H100.386Z" fill="#4E5864"/>
<path d="M86.433 27.1785H90.297V1.32147H86.433V27.1785Z" fill="#4E5864"/>
</svg>
