<svg width="174" height="32" viewBox="0 0 174 32" fill="none" xmlns="http://www.w3.org/2000/svg">
<path fill-rule="evenodd" clip-rule="evenodd" d="M14.8594 29.8075L21.6868 17.9566H17.0797L19.3832 13.9879H30.2072L27.9036 17.9844H23.9903L17.0797 30.0017C24.7674 30.0017 31.0953 23.7017 31.0953 15.9861C31.0953 8.32611 24.7952 2.02602 17.0797 2.02602C16.5246 2.02602 15.9418 2.05377 15.4422 2.13703L8.55928 14.0434H17.0797L14.7484 17.9566H3.92441L12.7501 2.6921C7.14384 4.49609 3.0918 9.79705 3.0918 15.9584C3.0918 22.9245 8.19848 28.7251 14.8594 29.8075ZM17.0797 0C25.8776 0 33.0658 7.18821 33.0658 15.9861C33.0658 24.8118 25.8498 32 17.0797 32C8.25399 32 1.09354 24.8118 1.09354 15.9861C1.09354 7.16045 8.25399 0 17.0797 0Z" fill="#4E5864"/>
<path d="M165.284 15.9584C165.701 14.0711 167.033 12.1561 169.225 12.1561C171.446 12.1561 171.917 14.0711 171.529 15.9584C171.113 17.8734 169.836 19.8161 167.588 19.8161C165.284 19.8161 164.868 17.8734 165.284 15.9584ZM162.981 15.9584C162.259 19.2056 163.647 21.5091 167.199 21.5091C170.696 21.5091 173.139 19.1778 173.832 15.9584C174.526 12.7389 173.055 10.4631 169.586 10.4631C166.061 10.4631 163.675 12.6834 162.981 15.9584ZM153.406 21.3148H155.626L156.597 16.902H157.319C158.263 16.902 158.485 17.2073 158.623 18.0121L159.234 21.3426H161.704L160.816 17.1795C160.705 16.7077 160.483 16.1249 159.872 16.0971V16.0694C161.316 15.8751 162.426 14.8482 162.703 13.5993C163.342 10.6297 160.483 10.7129 158.096 10.7129H155.682L153.406 21.3148ZM157.569 12.3226H158.29C159.401 12.3226 160.622 12.4336 160.344 13.7103C160.039 15.0425 158.762 15.1813 157.68 15.1813H156.958L157.569 12.3226ZM144.192 21.3148H148.077C149.465 21.3148 152.074 20.9263 152.656 18.2342C152.934 16.9297 152.101 15.9306 150.63 15.8196V15.7918C151.99 15.5698 153.073 14.6817 153.35 13.405C153.85 11.0737 151.796 10.6852 150.381 10.6852H146.495L144.192 21.3148ZM148.382 12.3226H149.243C150.27 12.3226 151.352 12.4059 151.102 13.6548C150.852 14.7372 149.659 14.9592 148.715 14.9592H147.8L148.382 12.3226ZM147.466 16.5412H148.521C149.631 16.5412 150.769 16.7632 150.464 18.1509C150.186 19.3721 148.882 19.6219 147.855 19.6219H146.8L147.466 16.5412ZM134.283 17.4571C133.673 20.3157 135.088 21.4814 137.947 21.4814C140.778 21.4814 142.721 20.3157 143.359 17.4571L144.83 10.6297H142.61L141.277 16.791C140.889 18.595 140.028 19.8161 138.308 19.8161C136.587 19.8161 136.254 18.6227 136.67 16.791L138.002 10.6297H135.782L134.283 17.4571ZM124.903 15.9584C125.319 14.0711 126.623 12.1561 128.816 12.1561C131.036 12.1561 131.536 14.0711 131.12 15.9584C130.703 17.8734 129.454 19.8161 127.179 19.8161C124.903 19.8161 124.459 17.8734 124.903 15.9584ZM122.571 15.9584C121.85 19.2056 123.237 21.5091 126.79 21.5091C130.287 21.5091 132.729 19.1778 133.423 15.9584C134.117 12.7389 132.646 10.4631 129.177 10.4631C125.68 10.4631 123.293 12.6834 122.571 15.9584ZM116.715 21.3148H118.936L120.878 12.3504H124.07L124.431 10.6574H115.855L115.494 12.3504H118.686L116.715 21.3148ZM106.03 15.7086C107.39 15.0425 108.473 14.3487 108.778 12.8777C109.166 11.157 107.668 10.4631 106.113 10.4631C104.559 10.4631 102.561 11.268 102.2 12.8777C101.95 14.0989 102.505 14.6539 103.199 15.4311C101.284 16.1526 100.507 17.0685 100.23 18.3729C99.8134 20.3712 101.312 21.4814 103.505 21.4814C104.615 21.4814 105.836 21.1206 106.78 20.3434L107.335 21.2871H110.054L108.528 19.15C109.638 18.1232 110.388 16.8465 110.721 15.5143H108.778C108.556 16.3469 108.223 17.235 107.557 17.8179L106.03 15.7086ZM105.031 14.6262C104.698 14.2099 104.198 13.7103 104.309 13.1275C104.476 12.3504 105.198 11.9896 105.836 11.9896C106.474 11.9896 106.974 12.3504 106.807 13.072C106.669 13.6826 105.642 14.3209 105.031 14.6262ZM105.975 19.2611C105.392 19.7329 104.643 19.8994 103.893 19.8994C102.866 19.8994 102.145 19.2611 102.367 18.3174C102.561 17.4848 103.283 16.9853 104.087 16.5967L105.975 19.2611ZM84.2713 21.3148H86.3806L88.1291 13.3495H88.1568L90.6824 21.3148H93.4023L95.7058 10.6574H93.5688L91.8481 18.6227H91.8203L89.3225 10.6574H86.6026L84.2713 21.3148ZM76.0285 21.3148H82.6061L82.9669 19.6496H78.6096L79.2757 16.6522H83.2167L83.5775 14.9592H79.6087L80.1915 12.3226H84.5211L84.8819 10.6297H78.332L76.0285 21.3148ZM76.417 10.8517C75.6677 10.6019 74.7796 10.4631 73.8359 10.4631C71.8932 10.4631 69.7561 11.3235 69.2566 13.7103C68.4795 17.235 73.5306 16.4024 73.0866 18.4284C72.8646 19.3998 71.6434 19.8161 70.8108 19.8161C69.9227 19.8161 69.1178 19.5663 68.4517 19.15L67.8411 21.065C68.868 21.3148 69.3953 21.4814 70.5888 21.4814C72.809 21.4814 74.9461 20.5932 75.4456 18.2619C76.2228 14.7095 71.1716 15.4866 71.5879 13.6271C71.8377 12.4614 72.8923 12.1561 73.6417 12.1561C74.4188 12.1561 75.1681 12.3226 75.8064 12.6002L76.417 10.8517ZM59.0432 21.3148H61.2635L62.2349 16.902H62.9565C63.9001 16.902 64.1221 17.2073 64.2609 18.0121L64.8715 21.3426H67.3416L66.4812 17.1795C66.3702 16.7077 66.1204 16.1249 65.5376 16.0971V16.0694C66.9808 15.8751 68.0909 14.8482 68.3685 13.5993C69.0068 10.6297 66.1482 10.7129 63.7613 10.7129H61.3468L59.0432 21.3148ZM63.2063 12.3226H63.9279C65.038 12.3226 66.2592 12.4336 65.9816 13.7103C65.6763 15.0425 64.3997 15.1813 63.3173 15.1813H62.5957L63.2063 12.3226ZM47.7197 21.3148H50.0233L51.522 18.8725H56.0181L56.4344 21.3148H58.9044L56.8507 10.6574H54.3528L47.7197 21.3148ZM55.7683 17.1795H52.5211L55.0744 12.7945H55.1022L55.7683 17.1795ZM41.0866 21.3148H47.6087L47.9695 19.6496H43.6677L45.6104 10.6574H43.3901L41.0866 21.3148Z" fill="#4E5864"/>
<path fill-rule="evenodd" clip-rule="evenodd" d="M14.6928 29.8075L21.5202 17.9844H16.9131L19.2167 14.0156H30.0406L27.7371 18.0121H23.8238L16.9131 30.0295C24.6009 30.0295 30.9287 23.7294 30.9287 16.0139C30.9287 8.35386 24.6287 2.05377 16.9131 2.05377C16.3581 2.05377 15.7752 2.08152 15.2757 2.16478L8.39274 14.0711H16.9131L14.6096 18.0399H3.78563L12.6113 2.77537C7.00506 4.57936 2.92527 9.88031 2.92527 16.0694C2.92527 22.9245 8.03195 28.7251 14.6928 29.8075ZM16.9131 0C25.711 0 32.8992 7.18821 32.8992 15.9861C32.8992 24.8118 25.6833 32 16.9131 32C8.08745 32 0.927002 24.8118 0.927002 15.9861C0.927002 7.16045 8.11521 0 16.9131 0Z" fill="#4E5864"/>
<path d="M165.118 15.9584C165.534 14.0711 166.866 12.1561 169.059 12.1561C171.279 12.1561 171.751 14.0711 171.362 15.9584C170.946 17.8734 169.669 19.8161 167.421 19.8161C165.146 19.8161 164.702 17.8734 165.118 15.9584ZM162.814 15.9584C162.093 19.2056 163.48 21.5091 167.033 21.5091C170.53 21.5091 172.972 19.1778 173.666 15.9584C174.36 12.7389 172.889 10.4631 169.42 10.4631C165.895 10.4631 163.508 12.6834 162.814 15.9584ZM153.239 21.3148H155.46L156.431 16.902H157.153C158.096 16.902 158.318 17.2073 158.457 18.0121L159.068 21.3426H161.538L160.649 17.1795C160.538 16.7077 160.316 16.1249 159.706 16.0971V16.0694C161.149 15.8751 162.259 14.8482 162.537 13.5993C163.175 10.6297 160.316 10.7129 157.93 10.7129H155.515L153.239 21.3148ZM157.402 12.3226H158.124C159.234 12.3226 160.455 12.4336 160.178 13.7103C159.872 15.0425 158.596 15.1813 157.513 15.1813H156.792L157.402 12.3226ZM144.025 21.3148H147.911C149.298 21.3148 151.907 20.9263 152.49 18.2342C152.767 16.9297 151.935 15.9306 150.464 15.8196V15.7918C151.824 15.5698 152.906 14.6817 153.184 13.405C153.683 11.0737 151.63 10.6852 150.214 10.6852H146.329L144.025 21.3148ZM148.216 12.3226H149.076C150.103 12.3226 151.185 12.4059 150.936 13.6548C150.686 14.7372 149.493 14.9592 148.549 14.9592H147.633L148.216 12.3226ZM147.3 16.5412H148.355C149.465 16.5412 150.603 16.7632 150.297 18.1509C150.02 19.3721 148.715 19.6219 147.689 19.6219H146.634L147.3 16.5412ZM134.117 17.4571C133.506 20.3157 134.922 21.4814 137.78 21.4814C140.639 21.4814 142.554 20.3157 143.192 17.4571L144.663 10.6297H142.443L141.111 16.791C140.722 18.595 139.862 19.8161 138.141 19.8161C136.448 19.8161 136.087 18.6227 136.504 16.791L137.836 10.6297H135.616L134.117 17.4571ZM124.736 15.9584C125.153 14.0711 126.457 12.1561 128.649 12.1561C130.87 12.1561 131.369 14.0711 130.953 15.9584C130.537 17.8734 129.288 19.8161 127.012 19.8161C124.736 19.8161 124.32 17.8734 124.736 15.9584ZM122.405 15.9584C121.683 19.2056 123.071 21.5091 126.623 21.5091C130.12 21.5091 132.563 19.1778 133.257 15.9584C133.95 12.7389 132.48 10.4631 129.01 10.4631C125.513 10.4631 123.126 12.6834 122.405 15.9584ZM116.549 21.3148H118.769L120.712 12.3504H123.904L124.264 10.6574H115.689L115.328 12.3504H118.519L116.549 21.3148ZM105.864 15.7086C107.224 15.0425 108.306 14.3487 108.611 12.8777C109 11.157 107.501 10.4631 105.947 10.4631C104.393 10.4631 102.394 11.268 102.034 12.8777C101.784 14.0989 102.339 14.6539 103.033 15.4311C101.118 16.1526 100.341 17.0685 100.063 18.3729C99.6469 20.3712 101.146 21.4814 103.338 21.4814C104.448 21.4814 105.669 21.1206 106.613 20.3434L107.168 21.2871H109.888L108.362 19.15C109.472 18.1232 110.221 16.8465 110.554 15.5143H108.611C108.389 16.3469 108.056 17.235 107.39 17.8179L105.864 15.7086ZM104.865 14.6262C104.532 14.2099 104.032 13.7103 104.143 13.1275C104.31 12.3504 105.031 11.9896 105.669 11.9896C106.308 11.9896 106.807 12.3504 106.641 13.072C106.502 13.6826 105.475 14.3209 104.865 14.6262ZM105.808 19.2611C105.225 19.7329 104.476 19.8994 103.727 19.8994C102.7 19.8994 101.978 19.2611 102.2 18.3174C102.394 17.4848 103.116 16.9853 103.921 16.5967L105.808 19.2611ZM84.1326 21.3148H86.2419L87.9903 13.3495H88.0181L90.5437 21.3148H93.2635L95.5671 10.6574H93.4301L91.7093 18.6227H91.6816L89.1837 10.6574H86.4639L84.1326 21.3148ZM75.862 21.3148H82.4396L82.8004 19.6496H78.4431L79.1091 16.6522H83.0502L83.411 14.9592H79.4422L80.025 12.3226H84.3546L84.7154 10.6297H78.1655L75.862 21.3148ZM76.2783 10.8517C75.5289 10.6019 74.6408 10.4631 73.6972 10.4631C71.7544 10.4631 69.6174 11.3235 69.1178 13.7103C68.3407 17.235 73.3919 16.4024 72.9478 18.4284C72.7258 19.3998 71.5046 19.8161 70.672 19.8161C69.7839 19.8161 68.9791 19.5663 68.313 19.15L67.7024 21.065C68.7293 21.3148 69.2566 21.4814 70.45 21.4814C72.6703 21.4814 74.8073 20.5932 75.3069 18.2619C76.084 14.7095 71.0328 15.4866 71.4491 13.6271C71.6989 12.4614 72.7536 12.1561 73.5029 12.1561C74.28 12.1561 75.0294 12.3226 75.6677 12.6002L76.2783 10.8517ZM58.8767 21.3148H61.097L62.0684 16.902H62.79C63.7336 16.902 63.9556 17.2073 64.0944 18.0121L64.705 21.3426H67.1751L66.3147 17.1795C66.2037 16.7077 65.9539 16.1249 65.3711 16.0971V16.0694C66.8143 15.8751 67.9244 14.8482 68.202 13.5993C68.8403 10.6297 65.9817 10.7129 63.5948 10.7129H61.1803L58.8767 21.3148ZM63.0675 12.3226H63.7891C64.8993 12.3226 66.1204 12.4336 65.8429 13.7103C65.5376 15.0425 64.2609 15.1813 63.1785 15.1813H62.4569L63.0675 12.3226ZM47.581 21.3148H49.8845L51.3832 18.8725H55.8793L56.2956 21.3148H58.7657L56.7119 10.6574H54.2141L47.581 21.3148ZM55.6295 17.1795H52.3823L54.9357 12.7945H54.9634L55.6295 17.1795ZM40.9201 21.3148H47.4422L47.803 19.6496H43.5012L45.4439 10.6574H43.2236L40.9201 21.3148Z" fill="#4E5864"/>
</svg>
