<svg width="75" height="32" viewBox="0 0 75 32" fill="none" xmlns="http://www.w3.org/2000/svg">
<g clip-path="url(#clip0_804_14758)">
<path d="M30.0479 31.9838C27.5386 31.8489 25.6661 30.8163 24.571 28.9637C23.8363 27.72 23.6127 26.0844 23.9488 24.4131C24.3213 22.5612 25.5859 20.8924 27.5268 19.6922C28.6421 19.002 29.5967 18.5736 31.5405 17.8903C32.0292 17.7186 32.451 17.5605 32.4782 17.5384C32.5172 17.5075 32.5227 17.3979 32.5032 17.0423C32.4474 16.0307 32.6161 14.4546 32.9019 13.3173C33.3825 11.4032 34.3073 9.85915 35.5348 8.92255C36.4159 8.24961 37.5709 7.74361 38.7208 7.52665C39.3558 7.40714 40.4193 7.40751 41.0169 7.52776C43.5774 8.04331 45.0144 10.0169 44.4485 12.2406C44.3294 12.7094 43.9528 13.478 43.634 13.903C42.8173 14.9923 41.5887 15.9608 39.8538 16.8824C39.6357 16.9986 38.9216 17.3494 38.2674 17.6627C37.6132 17.9756 37.0576 18.2525 37.0318 18.2783C36.9954 18.3147 37.0046 18.4209 37.0752 18.7784C37.4006 20.4309 37.9478 21.8272 38.8822 23.3886C39.2536 24.01 39.7673 24.7937 39.8258 24.8301C39.9104 24.8823 40.256 24.3237 40.4815 23.771C40.7602 23.087 40.9198 22.1824 40.8411 21.7331C40.7845 21.4113 40.6087 21.0715 40.3844 20.852C40.2814 20.7505 40.1961 20.6545 40.1957 20.6387C40.1954 20.6233 41.0661 20.6144 42.1315 20.62L44.0683 20.6299L44.0572 20.8755C44.0422 21.2113 43.9175 21.9272 43.7862 22.4369C43.4159 23.8699 42.718 25.0956 41.5115 26.4341C41.3692 26.5918 41.2526 26.7467 41.2526 26.7783C41.2526 26.8099 41.4526 27.0294 41.6968 27.2663C43.2218 28.7445 45.9231 30.4493 48.1225 31.3212C48.3361 31.4061 48.5104 31.4925 48.5097 31.5131C48.5089 31.5381 47.2392 31.5543 44.7989 31.5609L41.0893 31.5705L40.8782 31.4517C40.4473 31.2094 39.493 30.4383 38.5763 29.591C38.3821 29.4116 38.1982 29.2649 38.1677 29.2649C38.1372 29.2649 37.9213 29.3902 37.6889 29.5436C36.4979 30.3291 35.0744 31.0347 33.8705 31.4363C32.501 31.8934 31.3706 32.0548 30.0479 31.9838ZM33.1714 28.7699C33.7267 28.671 34.4088 28.4695 35.0362 28.219C35.6668 27.9675 36.4486 27.5829 36.4765 27.5101C36.4876 27.4814 36.3431 27.2398 36.1559 26.9728C35.2928 25.7431 34.3709 24.0137 33.7513 22.4626C33.523 21.8908 33.0964 20.6244 33.0148 20.2772C32.989 20.1665 32.9423 20.0662 32.9111 20.054C32.8246 20.0209 32.116 20.3986 31.5038 20.8046C29.3276 22.2471 28.2843 24.0082 28.516 25.8483C28.6189 26.6661 28.8778 27.2622 29.3489 27.7656C30.2197 28.696 31.581 29.0538 33.1714 28.7699ZM36.8652 15.9745C37.6706 15.503 38.948 14.3583 39.6625 13.4684C40.5771 12.3295 41.0632 11.2668 41.0636 10.4049C41.0636 9.9121 40.9937 9.69146 40.7657 9.46347C40.5388 9.23695 40.2829 9.14318 39.892 9.14282C38.7322 9.14282 37.4779 10.5196 36.9314 12.3928C36.6556 13.3371 36.5887 13.8453 36.5869 14.9989C36.5854 15.8799 36.5997 16.0759 36.6659 16.0759C36.6803 16.0759 36.77 16.0303 36.8652 15.9745ZM56.047 31.9618C54.1359 31.7694 52.8764 31.4837 51.4555 30.9211C49.522 30.1548 48.3148 29.2057 47.2951 27.6505C46.9899 27.185 46.5001 26.2076 46.3022 25.6674C45.4178 23.2606 45.2237 20.2305 45.7506 17.0695C46.2842 13.8703 47.4995 10.7869 49.1764 8.37684C50.2641 6.814 51.8825 5.16805 53.5531 3.92513C56.3118 1.87321 59.4871 0.61191 63.0147 0.168431C64.0848 0.0338423 64.6842 -0.000724035 65.948 1.14194e-05C67.8599 0.0011146 69.3161 0.146735 71.2389 0.528803C72.4656 0.772974 74.4197 1.3003 74.4573 1.39774C74.4764 1.44702 73.2382 5.41516 73.1871 5.46848C73.1713 5.48503 72.9812 5.35817 72.7653 5.18533C71.0264 3.799 69.2241 2.95507 67.4017 2.67449C66.8196 2.58477 65.7256 2.58366 65.1549 2.67229C62.5999 3.06796 60.231 4.7003 58.128 7.51452C57.4447 8.42869 56.692 9.65396 56.1066 10.8042C55.3134 12.3634 54.768 13.7416 54.2164 15.5847C52.4594 21.4484 52.3704 25.5453 53.9517 27.7631C54.6029 28.6769 55.555 29.259 56.763 29.4814C57.4565 29.6094 59.1399 29.5318 59.3076 29.3645C59.3345 29.338 60.1563 26.7665 61.1338 23.65C62.74 18.5309 62.9136 17.9536 62.9319 17.6634C62.9562 17.2736 62.8838 16.9254 62.7084 16.59C62.5491 16.2852 62.1285 15.8715 61.7817 15.6792C61.632 15.5961 61.5092 15.5152 61.5088 15.4997C61.5085 15.4843 64.2032 15.4714 67.4977 15.4714C70.7917 15.4714 73.4872 15.4843 73.4868 15.4997C73.4868 15.5152 73.3408 15.595 73.1625 15.6762C72.2299 16.1028 71.554 16.7419 71.1521 17.5781C71.065 17.759 70.3111 20.1007 69.1789 23.7067L67.3465 29.5425L66.817 29.7962C64.6603 30.8314 62.0218 31.5768 59.39 31.8948C58.9064 31.9537 56.4519 32.0026 56.0474 31.9618H56.047ZM0.914001 31.5352C0.901866 31.5161 0.981663 31.4488 1.09088 31.3859C1.74175 31.0112 2.47243 30.2338 2.78206 29.5859C2.87178 29.3983 11.0879 3.23086 11.2692 2.55461C11.3012 2.4362 11.328 2.18615 11.3284 1.99934C11.331 1.42863 11.1537 1.01715 10.7364 0.622206C10.6224 0.514462 10.5293 0.410395 10.5293 0.390905C10.5293 0.339056 24.8762 0.343469 25.5341 0.395686C26.9587 0.508578 28.3847 0.887337 29.4754 1.44187C31.3376 2.38877 32.4525 3.82585 32.7952 5.72075C32.8908 6.24807 32.9092 7.42112 32.8309 7.98889C32.5117 10.3034 31.4629 12.7583 30.0351 14.5344C27.7221 17.4115 23.9392 19.2513 19.2967 19.7573C17.825 19.9176 15.9706 19.958 14.6574 19.858C14.2779 19.829 13.9595 19.8132 13.9499 19.8227C13.9032 19.8698 10.9412 29.3737 10.9074 29.5859C10.8029 30.2401 11.1398 30.9755 11.7204 31.3609C11.8351 31.437 11.919 31.5153 11.9072 31.5345C11.8778 31.5819 0.943051 31.5823 0.913633 31.5348L0.914001 31.5352ZM17.1992 17.4193C18.2777 17.228 19.2294 16.8287 20.1476 16.1826C20.5937 15.8689 21.51 14.9536 21.8881 14.4443C22.8339 13.1709 23.5296 11.6684 24.0907 9.68926C24.4482 8.42795 24.6004 7.46708 24.6001 6.47679C24.6001 5.71339 24.5309 5.25741 24.339 4.7459C24.054 3.98691 23.4737 3.38715 22.7364 3.08929C22.1032 2.83335 21.5626 2.76606 20.2623 2.78113L19.282 2.79216L17.0032 10.0482C15.7503 14.0391 14.7317 17.3236 14.7402 17.3472C14.749 17.3707 14.9064 17.4104 15.0895 17.4354C15.2734 17.4604 15.4488 17.4869 15.48 17.4946C15.6227 17.5296 16.8929 17.4737 17.1992 17.4193Z" fill="#4E5864"/>
</g>
<defs>
<clipPath id="clip0_804_14758">
<rect width="73.5455" height="32" fill="white" transform="translate(0.912537)"/>
</clipPath>
</defs>
</svg>
